<svg xmlns="http://www.w3.org/2000/svg" viewBox="0 0 300 120" width="300" height="120" preserveAspectRatio="xMidYMax slice"><circle cx="240" cy="36" r="16" fill="#fde2b8"/><circle cx="240" cy="36" r="22" fill="#fde2b8" opacity=".35"/><path d="M0 78C60 56 110 70 160 80C210 60 260 68 300 74V120H0Z" fill="#cfe8d0"/><path d="M0 92C70 74 130 90 190 92C240 80 275 84 300 88V120H0Z" fill="#f8d3c0"/><path d="M0 106C60 94 120 108 190 104C240 96 275 100 300 102V120H0Z" fill="#b8dcc0"/><circle cx="60" cy="92" r="3" fill="#f7b8cf"/><circle cx="95" cy="100" r="3" fill="#f7e08a"/><circle cx="230" cy="96" r="3" fill="#cdb8ec"/><circle cx="270" cy="108" r="3" fill="#f7b8cf"/></svg>